<svg xmlns="http://www.w3.org/2000/svg" version="1.1" xmlns:xlink="http://www.w3.org/1999/xlink" xmlns:svgjs="http://svgjs.com/svgjs" width="1800" height="1500" preserveAspectRatio="none" viewBox="0 0 1800 1500"><g mask="url(&quot;#SvgjsMask1123&quot;)" fill="none"><rect width="1800" height="1500" x="0" y="0" fill="rgba(31, 33, 37, 1)"></rect><path d="M1800 0L1358.65 0L1800 600.5z" fill="rgba(255, 255, 255, .1)"></path><path d="M1358.65 0L1800 600.5L1800 650.18L607.3400000000001 0z" fill="rgba(255, 255, 255, .075)"></path><path d="M607.3400000000001 0L1800 650.18L1800 783.0799999999999L452.04000000000013 0z" fill="rgba(255, 255, 255, .05)"></path><path d="M452.0400000000002 0L1800 783.0799999999999L1800 1134.4099999999999L416.6700000000002 0z" fill="rgba(255, 255, 255, .025)"></path><path d="M0 1500L81.46 1500L0 1264.06z" fill="rgba(0, 0, 0, .1)"></path><path d="M0 1264.06L81.46 1500L809.69 1500L0 792.67z" fill="rgba(0, 0, 0, .075)"></path><path d="M0 792.6700000000001L809.69 1500L944.97 1500L0 494.45000000000005z" fill="rgba(0, 0, 0, .05)"></path><path d="M0 494.45000000000005L944.97 1500L1049.54 1500L0 347.52000000000004z" fill="rgba(0, 0, 0, .025)"></path></g><defs><mask id="SvgjsMask1123"><rect width="1800" height="1500" fill="#ffffff"></rect></mask></defs></svg>